<svg width="24" height="23" viewBox="0 0 24 23" fill="none" xmlns="http://www.w3.org/2000/svg">
<path d="M12 22.0132C18.0751 22.0132 23 17.2502 23 11.375C23 5.49971 18.0751 0.736847 12 0.736847C5.92487 0.736847 1 5.49971 1 11.375C1 17.2502 5.92487 22.0132 12 22.0132Z" stroke="white" stroke-linecap="round" stroke-linejoin="round"/>
<path d="M7.59957 1.80069H8.69957C6.55457 8.01337 6.55457 14.7367 8.69957 20.9494H7.59957" stroke="white" stroke-linecap="round" stroke-linejoin="round"/>
<path d="M15.2998 1.80069C17.4448 8.01337 17.4448 14.7367 15.2998 20.9494" stroke="white" stroke-linecap="round" stroke-linejoin="round"/>
<path d="M2.09961 15.6303V14.5664C8.52361 16.6409 15.4756 16.6409 21.8996 14.5664V15.6303" stroke="white" stroke-linecap="round" stroke-linejoin="round"/>
<path d="M2.09961 8.18367C8.52361 6.10923 15.4756 6.10923 21.8996 8.18367" stroke="white" stroke-linecap="round" stroke-linejoin="round"/>
</svg>
