<svg width="120" height="113" viewBox="0 0 120 113" fill="none" xmlns="http://www.w3.org/2000/svg">
<path d="M54.625 0.585938C54.025 1.125 54 1.26562 54 4.33594V7.5H32.65H11.275L10.675 8.01562C10.325 8.32031 7.8 11.1094 5.025 14.25C0.975 18.8203 0 20.0625 0 20.625C0 21.1875 0.975 22.4297 5.025 27C7.8 30.1406 10.325 32.9297 10.675 33.2109L11.275 33.75H32.65H54V37.5V41.25H41.625H29.225L28.625 41.8359L28 42.3984V54.375V66.3516L28.625 66.9141L29.225 67.5H41.625H54V88.125V108.75H37H20V110.625V112.5H60H100V110.625V108.75H83H66V88.125V67.5H87.35H108.725L109.325 66.9609C109.675 66.6797 112.2 63.8906 114.975 60.75C119.025 56.1797 120 54.9375 120 54.375C120 53.8125 119.025 52.5703 114.975 48C112.2 44.8594 109.675 42.0703 109.325 41.7656L108.725 41.25H87.35H66V37.5V33.75H78.375H90.775L91.375 33.1641L92 32.6016V20.625V8.64844L91.375 8.08594L90.775 7.5H78.375H66V4.33594C66 1.26562 65.975 1.125 65.375 0.585938C64.775 0 64.725 0 60 0C55.275 0 55.225 0 54.625 0.585938ZM62 5.625V7.5H60H58V5.625V3.75H60H62V5.625ZM88 20.625V30L50.45 29.9766H12.875L8.875 25.4766C6.7 23.0156 4.9 20.8359 4.9 20.625C4.9 20.4141 6.7 18.2344 8.875 15.7734L12.875 11.2734H50.45L88 11.25V20.625ZM62 37.5V41.25H60H58V37.5V33.75H60H62V37.5ZM111.125 49.5234C113.3 51.9844 115.1 54.1641 115.1 54.375C115.1 54.5859 113.3 56.7656 111.125 59.2266L107.125 63.7266H69.575L32 63.75V54.375V45L69.575 45.0234H107.125L111.125 49.5234ZM62 88.125V108.75H60H58V88.125V67.5H60H62V88.125Z" fill="#36094A"/>
</svg>
