<svg width="100" height="120" viewBox="0 0 100 120" fill="none" xmlns="http://www.w3.org/2000/svg">
<path d="M24.0249 0.383823C21.9996 0.946129 20.3584 1.86357 18.8568 3.28413C14.6316 7.22027 14.6665 13.2281 18.9616 17.105C21.406 19.3246 24.0249 20.2421 27.7613 20.2421C30.2406 20.2421 31.0438 20.1237 32.685 19.4726C42.0085 15.7732 42.253 4.76388 33.0691 0.946129C30.7644 -0.000911713 26.4344 -0.296862 24.0249 0.383823ZM30.8343 6.09566C34.2564 8.2265 34.2215 12.133 30.7993 14.2935C30.066 14.767 29.2978 14.915 27.7613 14.915C25.4566 14.915 24.3043 14.3823 22.9774 12.6953C22.0345 11.5411 21.8949 9.26232 22.6631 8.01933C23.2916 7.0131 24.5138 6.00687 25.6662 5.62214C26.9582 5.14862 29.7518 5.41497 30.8343 6.09566Z" fill="#36094A"/>
<path d="M67.2196 0.472605C63.7625 1.47883 60.8293 3.96482 59.6769 6.89472C58.8039 9.05515 59.1182 12.6657 60.3753 14.7078C61.5975 16.7795 63.6927 18.496 66.1371 19.4726C67.7783 20.1237 68.5814 20.2421 71.2353 20.2421C73.994 20.2421 74.6225 20.1533 76.2987 19.4134C81.8858 16.9866 84.4 12.0443 82.5842 7.0427C81.9207 5.17821 81.5366 4.6455 79.6859 3.07697C78.1145 1.74519 76.9621 1.0645 75.4955 0.620581C73.0861 -0.14889 69.5243 -0.20808 67.2196 0.472605ZM73.7146 5.91809C77.3463 7.39783 77.9748 11.3636 74.9368 13.672C71.1306 16.5723 65.4736 14.3823 65.4736 10.0318C65.4736 6.4212 69.7687 4.29036 73.7146 5.91809Z" fill="#36094A"/>
<path d="M12.7457 25.214C6.63472 26.9897 2.58405 30.5707 0.628553 35.9274C0.0698392 37.5551 0 38.9757 0 52.5006C0 67.1501 0 67.2981 0.768231 68.5115C2.37453 71.0567 5.72681 72.6548 8.9045 72.418L10.6505 72.2701V92.8682C10.6505 112.253 10.7203 113.525 11.3139 114.68C13.9678 119.652 21.1613 121.516 26.504 118.645L28.1103 117.758L29.7166 118.645C34.8148 121.368 41.7289 119.8 44.6272 115.242L45.3955 114.058L45.5701 77.0644L45.7447 40.0707L50.0398 39.9819L54.3 39.8931V76.6797C54.3 111.809 54.3349 113.525 54.9634 114.68C57.6173 119.652 64.8108 121.516 70.1535 118.645L71.7598 117.758L73.3661 118.645C78.6389 121.457 85.7276 119.711 88.3815 114.946L89.2196 113.466V92.8978V72.3293H91.5941C93.4448 72.3293 94.2829 72.1517 95.5051 71.5894C97.3558 70.7015 99.1717 68.7483 99.6954 67.1205C99.9748 66.2919 100.045 61.2903 99.9748 51.4944L99.87 37.1112L98.9621 35.01C97.2511 31.0146 94.3877 28.2031 90.1275 26.2794C86.1466 24.4741 87.6831 24.5333 49.7604 24.5333L15.0154 24.5629L12.7457 25.214ZM86.88 30.8962C89.464 31.9913 91.7338 34.1221 92.7465 36.3121C93.4798 37.9399 93.5147 38.5318 93.6893 51.8199L93.8639 65.6112L92.956 66.3807C91.8385 67.3277 91.1751 67.3573 90.0926 66.4102L89.2196 65.7V53.2405V40.7514L88.2069 39.8931C86.8101 38.7389 85.3435 38.7389 83.9467 39.8931L82.934 40.7514V76.6797C82.934 110.536 82.8991 112.608 82.3055 113.259C81.4674 114.206 79.2675 114.798 77.9056 114.473C77.312 114.325 76.4041 113.821 75.8803 113.318L74.9025 112.43V89.7607V67.0909L73.8899 66.2327C72.528 65.1081 70.8169 65.0489 69.5598 66.1439L68.617 66.9134L68.5472 89.7903L68.4424 112.667L67.6043 113.437C65.8933 114.976 63.2743 114.946 61.5633 113.318L60.5855 112.43V75.7327C60.5855 50.5473 60.4807 38.7981 60.2014 38.2358C59.6776 37.052 58.211 35.809 56.5697 35.1579C55.4174 34.714 54.3 34.5956 50.2842 34.5956C47.5954 34.5956 44.8018 34.7436 44.1035 34.8916C42.3575 35.3059 40.7163 36.5193 39.948 37.999C39.3195 39.1237 39.2845 40.929 39.2845 75.8806C39.2845 110.507 39.2496 112.608 38.656 113.259C37.8179 114.206 35.618 114.798 34.2561 114.473C33.6625 114.325 32.7546 113.821 32.2308 113.318L31.253 112.43V89.8199V67.2093L30.3451 66.2919C29.1229 65.0785 27.2373 65.0193 25.8754 66.1439L24.9675 66.943V89.6719V112.43L24.0247 113.318C22.2787 114.946 19.6597 114.976 17.9487 113.437L17.1106 112.667L16.936 76.5909C16.7614 40.6626 16.7614 40.5146 16.0281 39.9227C15.644 39.5972 14.7361 39.242 14.0377 39.1237C12.9552 38.9757 12.6409 39.0941 11.6981 39.8635L10.6505 40.7514V53.2405V65.7L9.77749 66.4102C8.48546 67.5349 7.33312 67.3573 6.46013 65.9959C5.83157 64.9305 6.28553 38.9165 7.01884 36.8152C7.96167 33.9741 10.9648 31.3994 14.4916 30.3635C15.8884 29.9492 19.8693 29.89 50.4588 29.9492L84.8546 30.0084L86.88 30.8962Z" fill="#36094A"/>
</svg>

