<svg width="120" height="120" viewBox="0 0 120 120" fill="none" xmlns="http://www.w3.org/2000/svg">
<path d="M59.9935 0.251289C42.7343 2.26095 26.7163 12.6576 18.7369 27.0467C16.8455 30.4765 15.7816 33.0757 14.7767 36.8003C13.831 40.2837 13.2991 43.6331 13.2991 46.1251V47.706L6.64953 57.3524C0.118214 66.8647 0 67.0255 0 68.4725C0 70.241 0.76839 71.7415 2.27562 72.7597C3.33954 73.51 3.39865 73.51 8.33408 73.5904L13.2991 73.6708V77.9313C13.2991 83.7995 12.7967 83.3975 20.3328 83.5583C25.7411 83.6923 26.3321 83.7459 27.071 84.255C28.3713 85.1392 28.9624 86.0235 29.2284 87.524C29.5239 89.3193 30.0854 89.8552 31.6518 89.8552C32.5975 89.8552 33.0112 89.6945 33.4545 89.1853C34.3116 88.2207 34.016 85.9163 32.7452 83.7727C31.7109 82.0042 30.7652 81.1735 28.5487 80.1285C27.1596 79.4854 26.7163 79.4318 22.5493 79.3246L18.0276 79.2174V75.0909C18.0276 71.152 17.9981 70.9644 17.3183 70.241L16.6091 69.4907L10.7575 69.3567C5.46739 69.2495 4.87632 69.1691 4.78766 68.7672C4.72856 68.4993 7.59524 64.0512 11.1712 58.8529L17.673 49.3941L17.8207 46.2858C18.2345 38.5688 21.1012 30.9589 26.1844 23.992C28.9624 20.1603 35.08 14.6672 39.3948 12.0413C45.0986 8.61147 51.1275 6.33385 57.9248 5.02087C60.5846 4.48497 61.9145 4.40458 67.0864 4.40458C72.2287 4.40458 73.6177 4.48497 76.1297 4.99408C84.3161 6.60181 92.2068 10.1924 98.4131 15.0692C100.896 17.052 101.693 17.2396 103.023 16.2214C104.058 15.3907 104.117 14.1581 103.112 13.1935C101.871 11.9609 98.354 9.46892 95.4577 7.72721C88.6604 3.68111 80.5628 1.05515 72.3469 0.251289C69.0665 -0.0970535 62.8307 -0.0702591 59.9935 0.251289Z" fill="#36094A"/>
<path d="M52.66 15.8931C51.5666 16.6701 51.5961 17.6615 52.7487 19.7784C54.7288 23.4226 53.458 27.2543 49.2023 30.6305C47.1631 32.2383 46.838 32.8814 47.5177 34.0604C48.3748 35.5609 49.882 35.5877 52.0099 34.0872C56.4133 31.0057 59.0732 25.8877 58.3639 21.8416C58.0683 20.1803 58.1865 20.1535 60.2848 21.2521C63.3584 22.8331 66.3729 26.2897 68.087 30.2018C68.9145 32.0775 69.4464 33.9264 71.0423 40.5716C71.3674 41.965 72.0471 43.8675 72.52 44.7785C74.5001 48.5835 78.9331 51.397 83.9572 52.0669C86.2919 52.3616 87.1785 52.0937 87.7105 50.9415C88.2129 49.8965 88.0947 49.5749 86.2919 47.1097C84.0163 44.0015 83.0706 41.1611 83.2183 37.8385L83.307 35.8557L85.7599 37.9725C89.6905 41.3755 92.2617 45.3144 93.6803 50.084C94.5373 52.9511 94.4782 59.9983 93.562 62.8922C90.8136 71.5472 84.4005 77.9513 75.6822 80.7112C74.2341 81.1667 72.3722 81.6223 71.5447 81.7026C70.0966 81.8366 69.9193 81.783 68.5894 80.7916C65.5158 78.5408 62.7673 74.5751 61.6739 70.8237C61.0237 68.5729 61.0237 64.5536 61.7034 62.2492C62.1763 60.561 64.3337 56.1934 65.1907 55.202C65.5749 54.7464 65.6931 54.8268 66.8753 56.2738C70.0079 60.1055 71.3969 64.6607 70.7468 69.0016C70.0079 73.8248 70.0079 73.6104 70.8945 74.2535C72.6973 75.5397 74.175 74.709 75.0616 71.9491C75.6822 70.0198 75.6822 64.9555 75.0616 62.2492C74.175 58.2566 69.8602 51.7721 67.0821 50.218C65.4567 49.307 64.3041 49.3873 63.2697 50.486C60.5213 53.4067 58.1865 57.4528 57.1226 61.1773C56.236 64.2856 56.236 68.948 57.1226 72.0295C57.9501 74.843 59.6347 78.0317 61.5556 80.2825L63.0924 82.1314L61.8216 81.9438C57.891 81.4079 53.4875 79.827 50.148 77.7637C48.0497 76.4775 44.4737 73.1013 42.8483 70.8505C41.1637 68.5729 39.4496 65.0895 38.6517 62.3831C37.9129 59.8108 37.8538 52.6832 38.5926 50.3252C39.4201 47.5921 40.2771 45.77 41.7844 43.4656C43.528 40.8664 43.6758 39.8214 42.4937 38.9639C40.6909 37.6777 39.2132 38.6692 36.9376 42.6885C34.2778 47.3241 33.2139 51.2898 33.2139 56.4881C33.2139 64.6607 36.5239 71.9491 42.8187 77.6565C52.4827 86.4186 66.9935 88.9106 79.6424 83.9803C84.3709 82.1314 89.0995 78.7283 92.3504 74.8698C94.4487 72.3778 97.1676 67.2063 98.1133 63.9909C99.059 60.695 99.3841 55.202 98.8226 51.7721C98.1428 47.5385 96.2514 43.1976 93.5029 39.4462C90.7545 35.7485 83.7503 30.3626 81.652 30.3626C78.9922 30.3626 77.5441 37.0614 79.0217 42.6349C79.3468 43.8675 79.7606 45.1001 79.9379 45.4216C80.8836 47.0293 78.4307 45.368 77.1008 43.4924C76.1846 42.1794 75.8595 41.1344 75.1798 37.4098C73.8794 30.0946 70.8354 24.1728 66.3138 20.1535C63.122 17.3132 59.5756 15.7591 55.5563 15.4643C53.6944 15.3036 53.3693 15.3571 52.66 15.8931Z" fill="#36094A"/>
<path d="M107.752 21.4196C106.541 22.277 106.718 23.2685 108.639 26.082C111.446 30.3157 113.426 35.0585 114.579 40.2836C115.407 44.0617 115.318 52.6899 114.431 56.7092C113.486 61.0232 112.274 64.1047 109.939 68.4188C106.747 74.2602 102.846 78.6278 97.0243 82.9151C92.8573 85.9698 91.4683 87.7651 90.4339 91.4897C89.9019 93.3921 89.8428 94.4639 89.8428 104.646V115.713H66.6729H43.5325L43.3552 113.864C43.1188 111.318 42.0253 109.282 39.7793 107.245C37.0308 104.753 35.7895 104.405 28.8149 104.191C22.6678 104.003 21.7812 103.789 20.0375 102.127C18.3234 100.493 18.0279 99.3943 18.0279 94.4104C18.0279 91.8916 17.9392 89.5872 17.8506 89.2388C17.6437 88.569 16.3433 87.8455 15.3681 87.8455C15.043 87.8455 14.4224 88.1402 14.0086 88.5154L13.2402 89.212L13.3584 94.7587L13.4471 100.305L14.3928 102.127C16.0478 105.263 19.2987 107.567 23.0224 108.21C23.8795 108.344 26.5393 108.478 28.9331 108.478C33.7799 108.478 34.8438 108.746 36.617 110.38C38.2129 111.801 38.7153 113.087 38.7153 115.766C38.7153 118.365 39.0404 119.277 40.1043 119.705C40.6067 119.92 48.4384 120 66.9684 120H93.1233L93.8326 119.33L94.5714 118.687V106.415C94.5714 93.151 94.66 92.1863 96.1673 89.8819C96.581 89.212 97.7041 88.0866 98.6498 87.3632C99.5659 86.6129 101.339 85.2463 102.551 84.3085C103.763 83.3706 105.743 81.5753 106.925 80.316C118.332 68.3384 122.677 51.5645 118.362 36.1035C117.564 33.29 116.027 29.5118 114.727 27.1538C113.633 25.1441 111.151 21.6072 110.589 21.2052C109.851 20.6961 108.639 20.7765 107.752 21.4196Z" fill="#36094A"/>
</svg>
