<svg width="120" height="120" viewBox="0 0 120 120" fill="none" xmlns="http://www.w3.org/2000/svg">
<path d="M54.0703 0.234344C34.1719 2.03903 15.9609 12.5859 4.54688 28.9687C2.36719 32.1093 0 36.2812 0 37.0078C0 38.2734 3.89062 44.5078 7.35938 48.8437C9.70312 51.7968 14.625 56.7422 17.5781 59.1093C24.2109 64.4531 32.7422 68.9062 40.9688 71.3672C43.875 72.2109 48.1641 73.1484 49.3828 73.1718C50.3203 73.1718 50.5781 73.0781 51.1406 72.4453C52.1719 71.2968 51.9375 69.6093 50.6484 68.9297C50.4375 68.8125 48.8906 68.414 47.2031 68.0859C40.3125 66.6562 31.0312 62.8828 26.3906 59.6015C24.7266 58.4062 24.6562 56.9062 26.2266 55.8515C28.0078 54.6562 33.4688 53.4375 37.0312 53.4375C40.6406 53.4609 43.7812 54.1406 48.0234 55.8281C49.6172 56.4609 51.9375 57.2578 53.1797 57.6093C55.2422 58.1718 55.8047 58.2187 60 58.2187C64.1953 58.2187 64.7578 58.1718 66.8203 57.6093C68.0625 57.2578 70.3828 56.4609 71.9766 55.8281C77.625 53.5547 81.7734 52.9922 86.9531 53.7656C89.4609 54.164 92.5547 55.0781 93.7031 55.7812C94.4531 56.25 94.9219 57.0468 94.9219 57.8906C94.9219 58.664 93.75 59.6718 91.125 61.1484C85.8047 64.1953 78.7031 66.8672 72.7969 68.0859C71.1094 68.414 69.5625 68.8125 69.3516 68.9297C67.7109 69.7968 67.8984 72.2578 69.6562 72.9843C71.4609 73.7578 81.6328 70.9453 88.2422 67.875C89.5078 67.289 90.5859 66.7968 90.6328 66.7968C90.6797 66.7968 89.5078 68.5781 88.0312 70.7578C84.9609 75.3281 84.3984 76.6875 84.2109 79.8047C83.8359 86.3672 88.1719 92.0625 94.5703 93.3984C99.0469 94.3359 103.102 93.1172 106.43 89.789C109.711 86.5078 110.977 82.3828 110.039 77.9765C109.523 75.4922 108.867 74.3437 104.227 67.5L99.8672 61.125L102.258 59.2265C105.305 56.789 110.227 51.8906 112.641 48.8437C116.109 44.5078 120 38.2734 120 37.0078C120 36.2812 117.633 32.1093 115.453 28.9687C107.859 18.0703 97.4297 9.79684 84.9844 4.80466C77.2734 1.71091 70.0781 0.281219 61.4062 0.117157C58.6406 0.070282 55.3359 0.117157 54.0703 0.234344ZM65.0391 5.24997C69.5156 6.21091 73.2891 8.22653 76.6172 11.3672C80.6719 15.2109 83.1562 19.8515 84.0234 25.1953C86.5078 40.4531 74.1797 54.1875 58.7344 53.3672C46.3359 52.7109 36.4219 42.8437 35.6953 30.4687C35.2969 23.2734 37.9688 16.5234 43.2891 11.4609C46.7812 8.13278 51.0234 5.92966 55.4297 5.17966C56.2031 5.03903 57.0938 4.87497 57.4219 4.82809C58.5469 4.61716 63.4219 4.89841 65.0391 5.24997ZM38.625 9.42184C34.8281 13.7812 32.625 18.0937 31.4766 23.5312C30.8906 26.1796 30.9141 31.9687 31.4766 34.6875C32.0156 37.2187 32.8828 39.75 33.9141 41.8359C34.9219 43.8515 37.0078 47.0156 37.8281 47.789C38.1562 48.1172 38.4375 48.4453 38.4375 48.5625C38.4375 48.6562 37.7812 48.75 36.9844 48.75C33.3984 48.75 28.5234 49.7343 25.2422 51.0937C23.8359 51.6797 23.2031 52.1015 22.2656 53.1328C21.6328 53.8359 21.0234 54.6797 20.9531 54.9843C20.8594 55.3125 20.7188 55.5468 20.625 55.5C20.5078 55.4531 19.4062 54.539 18.1641 53.4375C15.5156 51.1172 12.1172 47.414 9.82031 44.3906C7.85156 41.7656 5.15625 37.5468 5.15625 37.0781C5.15625 36.8906 5.78906 35.6953 6.5625 34.4297C13.6406 22.9921 24.4453 14.0156 37.1484 8.99997C38.5547 8.43747 39.7734 7.96872 39.8203 7.96872C39.8672 7.96872 39.3281 8.62497 38.625 9.42184ZM87.7734 11.2265C95.2266 14.9062 101.391 19.5468 106.617 25.3828C110.062 29.25 114.844 36.0468 114.844 37.0547C114.844 37.5234 112.125 41.8125 110.203 44.3437C107.883 47.414 104.484 51.1172 101.836 53.4375C100.594 54.539 99.4922 55.4531 99.3984 55.5C99.3047 55.5234 99.0469 55.1484 98.8359 54.6328C98.1562 53.1328 96.4453 51.7265 94.2188 50.8593C91.3359 49.7578 87.7266 49.0078 84.4453 48.8437C82.8516 48.75 81.5625 48.6093 81.5625 48.5156C81.5625 48.4453 81.8438 48.1172 82.1719 47.789C82.9922 47.039 85.0781 43.8515 86.0859 41.8359C88.5703 36.8203 89.5781 30.3984 88.7344 24.8906C87.8438 19.125 85.4766 14.1093 81.375 9.42184L80.0859 7.94528L82.0547 8.67184C83.1328 9.07028 85.7109 10.2187 87.7734 11.2265ZM101.016 71.1328C105.258 77.3437 105.562 78 105.586 80.625C105.586 82.4062 105.516 82.7812 104.836 84.164C103.922 86.0156 102.445 87.4453 100.594 88.3125C99.4688 88.8281 98.9297 88.9453 97.2656 88.9218C94.6875 88.9218 92.9062 88.1718 91.1719 86.3437C89.4141 84.4922 88.9688 83.3203 88.9453 80.625C88.9453 77.789 89.0625 77.5312 93.6328 70.8281C96.2812 66.9375 97.2188 65.7422 97.4062 65.9297C97.5703 66.0937 99.1875 68.414 101.016 71.1328Z" fill="#36094A"/>
<path d="M64.6175 11.9531C64.1488 12.0703 63.3285 12.3984 62.8128 12.6562C62.1566 12.9844 61.43 13.125 60.2347 13.125C53.8831 13.125 48.1878 16.7344 45.5863 22.3828C42.5394 28.9687 44.3441 36.9141 49.8753 41.3672C58.0081 47.8828 69.7972 45.2812 74.2972 35.9766C75.9613 32.5078 76.3597 28.4531 75.3753 24.8906C75.1175 23.9766 75.0941 23.4375 75.2816 22.7812C75.4222 22.3125 75.4691 21.1172 75.4222 20.1094C75.1644 15.5859 71.6253 12.0937 67.0316 11.8359C66.1878 11.7656 65.1097 11.8359 64.6175 11.9531ZM68.0394 16.7344C70.43 17.6016 71.4378 20.2734 70.2894 22.6641C69.6097 24.0469 68.2503 24.8437 66.5394 24.8437C63.4456 24.8437 61.4535 21.6797 62.8128 18.8906C63.7972 16.8281 65.8831 15.9844 68.0394 16.7344ZM57.8441 18.9141C57.1644 21.3516 58.2894 24.9844 60.3519 27.0234C62.0863 28.7344 63.6331 29.3672 66.2113 29.4844C68.0863 29.5781 68.5316 29.5078 69.7972 28.9922L71.2503 28.4062V29.3906C71.2503 32.9531 68.6956 37.125 65.4144 38.8828C60.9144 41.2734 55.8988 40.5937 52.2425 37.125C47.7894 32.8594 47.6019 25.8984 51.8675 21.3984C53.2035 19.9922 54.0941 19.3828 55.9925 18.6094C57.9144 17.8125 58.1488 17.8359 57.8441 18.9141Z" fill="#36094A"/>
<path d="M59.1562 69.586C58.4531 69.8907 57.6562 70.9688 57.6562 71.6485C57.6562 71.9532 57.8203 72.5157 58.0078 72.8907C59.1094 75.0235 62.3438 74.0626 62.3438 71.6251C62.3438 70.3126 60.3984 69.0704 59.1562 69.586Z" fill="#36094A"/>
<path d="M69.9606 85.5234C69.7028 85.6406 69.281 85.9687 68.9997 86.2734C67.8747 87.5391 59.4138 100.266 58.8044 101.602C55.945 107.93 58.7575 115.57 65.0622 118.617C68.8356 120.445 72.8435 120.422 76.6169 118.57C83.1325 115.359 85.8044 107.25 82.4294 100.922C81.5153 99.2109 72.9138 86.5547 72.2575 85.9687C71.695 85.4531 70.5935 85.2422 69.9606 85.5234ZM74.6013 97.4297C76.5935 100.383 78.3981 103.195 78.6325 103.711C78.8435 104.227 79.0778 105.352 79.1481 106.195C79.4528 109.687 77.4841 113.016 74.2497 114.516C72.9841 115.102 72.4919 115.195 70.781 115.195C69.0935 115.195 68.5778 115.102 67.3825 114.539C63.5856 112.781 61.57 108.516 62.6716 104.648C62.906 103.898 63.2575 103.008 63.4685 102.68C64.8513 100.477 70.6638 92.1094 70.8044 92.1094C70.8981 92.1094 72.6091 94.5 74.6013 97.4297Z" fill="#36094A"/>
</svg>
