<svg width="118" height="116" viewBox="0 0 118 116" fill="none" xmlns="http://www.w3.org/2000/svg">
<path d="M42.5699 0.234924C34.102 1.07349 25.7308 4.17843 18.8113 9.05115C16.2467 10.8643 11.4079 15.397 9.52075 17.7767C5.02064 23.42 1.94799 30.0605 0.641507 36.9276C-0.277869 41.9137 -0.205287 48.5542 0.83506 53.4722C4.07707 68.5437 15.2306 80.8954 30.6422 86.5387C33.6423 87.6266 34.3681 88.1025 35.2149 89.4624C36.0133 90.7315 36.0859 92.2953 35.5536 96.1482C35.1665 98.7999 35.2391 99.1171 36.3036 99.6837C37.102 100.114 38.2876 99.6837 38.6263 98.8452C39.0618 97.78 39.715 92.658 39.5698 91.2981C39.4247 89.8023 38.4085 87.5586 37.344 86.3801C36.352 85.2696 34.8278 84.363 32.4568 83.5244C29.3841 82.4139 27.4486 81.5527 25.2469 80.3515C11.8192 72.9178 3.59319 59.3875 3.59319 44.7467C3.59319 26.8876 15.6177 11.2042 33.6423 5.53825C44.9167 2.0027 56.8686 2.84126 67.6108 7.91796C69.4738 8.80185 71.9174 10.139 73.0545 10.9096L75.1594 12.3147V14.6944C75.1594 17.3461 75.5949 19.0686 76.7804 20.995C77.1675 21.6296 80.1676 24.6439 83.9661 28.2247L90.4743 34.344L90.934 36.497C93.8615 49.71 89.5549 63.535 79.4418 73.3937C74.7239 77.9718 69.7399 81.0314 62.7962 83.6151C59.5542 84.8163 57.9574 86.0628 56.7719 88.3292C55.6347 90.4822 55.6105 92.1594 56.5783 98.4372C57.4735 104.284 57.4251 105.304 56.1912 107.639C53.2879 113.055 45.6426 114.257 40.9973 110.041C40.0053 109.112 38.4327 106.619 38.4327 105.916C38.4327 105.78 38.215 105.395 37.9246 105.055C37.2714 104.262 36.0617 104.239 35.2875 105.032C34.8278 105.508 34.7552 105.735 34.9004 106.551C34.9972 107.095 35.4568 108.273 35.9407 109.203C37.5617 112.375 40.9005 114.823 44.7474 115.684C51.2072 117.09 57.8122 113.69 60.1107 107.729C61.0542 105.304 61.0784 103.831 60.2074 98.2333C59.2639 92.1594 59.2881 90.6409 60.3284 89.2584C61.3446 87.9212 61.8526 87.6266 65.4576 86.2668C71.7238 83.8871 76.9982 80.5555 81.7402 76.0001C89.8936 68.1584 94.3211 58.9795 95.3131 47.8516C95.5792 44.86 95.3857 40.1459 94.9018 37.8569L94.7566 37.1996H96.4744C99.4745 37.1996 100.152 36.769 106.346 30.9671C111.451 26.2077 111.741 25.8904 111.741 25.0971C111.741 24.0773 110.991 23.3294 109.975 23.3294C109.37 23.3294 108.426 24.0999 103.636 28.542C97.7809 33.9813 97.9019 33.9134 96.0147 33.7547C95.676 33.732 95.1437 33.5734 94.805 33.4147C94.4663 33.2334 91.0791 30.1738 87.2807 26.5703C82.1999 21.7882 80.1676 19.7258 79.7321 18.8872C75.8368 11.5895 83.8209 3.8838 91.7324 7.30604C92.434 7.60066 93.6679 8.41656 94.5147 9.1418C95.3373 9.84438 96.2083 10.411 96.4018 10.411C97.0067 10.411 97.7567 9.9577 99.039 8.84718C101.991 6.2635 106.104 5.74223 109.612 7.51001C113.338 9.36844 115.225 13.5159 114.064 17.2554C113.555 18.9552 113.58 19.5898 114.209 20.1564C114.862 20.723 115.878 20.7457 116.531 20.2017C117.789 19.2045 118.418 14.8757 117.693 12.2241C116.58 8.12193 113.289 4.81302 109.104 3.58917C105.329 2.5013 100.321 3.3172 97.5148 5.51559C97.1277 5.85555 96.7164 6.10485 96.6438 6.10485C96.5712 6.10485 95.8454 5.67424 95.047 5.17564C92.8453 3.77048 90.5952 3.11323 87.9339 3.11323C86.7242 3.11323 85.2483 3.22655 84.6435 3.38519C83.1435 3.77048 80.9902 4.79035 79.7805 5.69691C78.8127 6.42214 77.0223 8.34857 76.853 8.86983C76.7804 9.02848 75.7159 8.50722 74.3368 7.64599C71.1674 5.67424 69.2802 4.72236 66.2318 3.52118C58.7316 0.597549 50.6024 -0.535645 42.5699 0.234924Z" fill="#36094A"/>
<path d="M45.0862 10.207C32.3117 10.9096 20.626 18.1847 14.7468 29.0633C8.94021 39.8059 9.3999 52.2937 16.0049 62.6057C21.1824 70.6967 29.5536 76.34 39.6425 78.5611C43.4168 79.3996 49.7799 79.5356 53.7961 78.901C61.635 77.6318 68.0223 74.5269 73.7805 69.1329C79.2725 63.9656 82.5387 58.277 84.0872 51.0925C84.7646 47.8969 84.7162 40.9845 83.9662 37.8795C83.1436 34.4573 82.3694 32.3949 80.7484 29.3353C77.2644 22.6948 71.724 17.4141 64.8044 14.0599C58.514 11.0229 52.3929 9.82172 45.0862 10.207ZM55.4413 14.3545C58.2962 14.9891 61.4173 16.1223 63.6915 17.3008C64.9496 17.958 65.2641 18.23 65.3851 18.8193C65.4577 19.2045 65.5303 21.5389 65.5303 24.0093V28.474L64.7802 28.6327C62.9415 28.9726 56.9413 29.2446 54.401 29.1086C50.8202 28.9273 48.8363 28.6553 45.6427 27.9301C43.1991 27.3635 43.0539 27.3408 42.4491 27.7035C41.1426 28.5194 41.4087 30.1285 42.9571 30.7178C44.433 31.307 49.1508 32.1229 52.659 32.3949C56.2397 32.6895 60.3527 32.5762 64.6835 32.0323C68.6997 31.5563 69.5707 31.6016 71.2885 32.4175C72.9821 33.2108 74.0708 34.2986 74.6031 35.7718C75.3531 37.8569 74.8692 41.0525 73.4417 43.3188C72.2078 45.2906 69.5223 47.2397 66.9335 48.0102C65.7238 48.3729 65.5787 48.6222 65.1674 50.6619C63.3286 59.7954 56.8688 67.3651 47.8927 70.9234C45.1588 71.9886 44.9653 72.2152 44.9653 74.4589V75.9321L43.7072 75.7734C41.7958 75.5694 37.7796 74.6629 36.0134 74.0283C28.2955 71.3086 21.7631 65.824 18.013 58.9342C16.4888 56.1239 15.642 53.8575 14.9162 50.6619C14.2387 47.6476 14.1903 42.299 14.8194 39.3073C15.7871 34.6159 18.013 29.7885 20.8437 26.2077C22.247 24.4172 26.36 20.3831 26.7955 20.3831C26.9164 20.3831 27.6181 21.0856 28.3923 21.9695C30.7391 24.6665 34.4408 27.4088 35.7473 27.4088C37.0296 27.4088 37.8038 26.253 37.3199 25.0518C37.2473 24.8478 36.4973 24.2586 35.6747 23.692C33.9811 22.5588 31.0052 19.8391 30.3762 18.8419L29.9649 18.162L32.3117 17.0288C36.6425 14.9437 40.7313 13.8785 45.3282 13.6066C48.7637 13.4026 52.4896 13.6746 55.4413 14.3545ZM75.4499 27.4315C79.0548 32.5762 80.7 37.4036 80.9419 43.6135C81.1597 49.2568 80.1919 53.4949 77.5064 58.5716C74.1918 64.8495 69.111 69.6089 62.4576 72.7138C58.5866 74.5269 53.0703 75.9094 49.7557 75.9094C48.5944 75.9094 48.5944 75.9094 48.5944 75.1388C48.5944 74.4136 48.667 74.3456 50.6993 73.439C55.3445 71.354 60.0624 67.6824 62.9415 63.9202C65.5787 60.5207 68.0465 55.2853 68.5545 52.0671C68.6997 51.1152 68.8207 50.9792 69.5223 50.7526C70.853 50.3446 73.2482 48.7808 74.6273 47.421C75.3531 46.7184 76.3692 45.3586 76.9015 44.384C78.1838 42.0497 78.6677 40.0779 78.5467 37.4716C78.4741 35.6358 78.3531 35.2052 77.5547 33.6867C76.1273 30.9897 73.6837 29.1766 70.5626 28.542L69.1594 28.2474V24.4852V20.723L71.5546 23.0121C72.9095 24.2812 74.6031 26.2303 75.4499 27.4315Z" fill="#36094A"/>
<path d="M68.8686 36.2251C67.9976 36.8823 66.8121 39.1034 66.4976 40.7125C66.1347 42.6843 66.7154 43.7268 68.1912 43.7268C69.0622 43.7268 69.7154 42.9336 70.03 41.4604C70.2477 40.5539 70.659 39.6247 71.2397 38.8541C72.159 37.5849 72.1832 37.041 71.3848 36.1798C70.9009 35.6585 69.6187 35.6812 68.8686 36.2251Z" fill="#36094A"/>
<path d="M20.602 39.7606C18.8358 40.1232 17.1422 40.9391 15.8599 42.027C15.0615 42.7069 14.9405 42.9335 15.0131 43.6588C15.0615 44.2254 15.2793 44.6106 15.7389 44.9279C16.5373 45.4719 17.2148 45.3585 18.4971 44.384C19.9003 43.3415 20.9407 43.0015 22.7068 42.9562C24.5214 42.9335 25.4408 43.2281 27.2795 44.452C28.7796 45.4492 29.1667 45.4945 30.0619 44.8373C31.0054 44.1347 30.9328 42.9788 29.8925 42.0496C28.707 41.0071 26.7957 40.1232 24.9569 39.7606C22.9972 39.3753 22.5617 39.3753 20.602 39.7606Z" fill="#36094A"/>
<path d="M48.4492 39.7606C46.5621 40.1459 45.2072 40.8031 43.8523 41.959C42.5459 43.0922 42.4007 44.0894 43.4169 44.8373C44.2636 45.4492 44.7233 45.4266 45.7153 44.7466C49.1267 42.4349 51.8606 42.299 54.9091 44.316C56.6268 45.4492 56.9656 45.5172 57.8849 44.8373C58.3446 44.4973 58.514 44.1574 58.514 43.5681C58.514 42.095 55.9252 40.3725 52.7316 39.7379C50.8203 39.3753 50.3606 39.3753 48.4492 39.7606Z" fill="#36094A"/>
<path d="M30.2794 56.4412C29.6745 56.6451 28.9971 57.5064 28.9971 58.0503C28.9971 58.7529 30.5939 60.158 32.3117 60.9739C33.8843 61.7218 34.0294 61.7445 36.7392 61.7445C39.4005 61.7445 39.5941 61.7218 41.1425 60.9966C42.8361 60.226 44.4813 58.7529 44.4813 58.0276C44.4813 57.7783 44.2394 57.3024 43.9248 56.9624C43.2474 56.2145 42.2554 56.1692 41.3845 56.8491C41.0215 57.1211 40.1506 57.597 39.4489 57.9143C37.2231 58.9342 34.1504 58.5262 32.3842 57.0078C31.6584 56.3732 30.981 56.1919 30.2794 56.4412Z" fill="#36094A"/>
</svg>
