<svg width="140" height="140" viewBox="0 0 140 140" fill="none" xmlns="http://www.w3.org/2000/svg">
<g filter="url(#filter0_d_133_100)">
<ellipse cx="65" cy="62.6094" rx="50" ry="49.6094" fill="#FCF6FF"/>
<path d="M56.88 63.824C56.8373 63.5253 56.816 62.7573 56.816 61.52C56.816 60.2827 56.9653 59.5147 57.264 59.216C57.6053 58.8747 58.3733 58.64 59.568 58.512C64.2613 58 67.7813 56.6347 70.128 54.416C72.5173 52.1547 73.712 49.7013 73.712 47.056C73.712 44.368 72.944 42.1493 71.408 40.4C69.872 38.608 67.76 37.712 65.072 37.712C62.4267 37.712 60.4427 38.416 59.12 39.824C57.7973 41.1893 56.7093 43.152 55.856 45.712C54.2347 45.072 53.1253 44.432 52.528 43.792C51.9307 43.1093 51.632 42.2347 51.632 41.168C51.632 39.3333 52.8053 37.5627 55.152 35.856C57.5413 34.1067 61.232 33.232 66.224 33.232C71.216 33.232 74.9493 34.3627 77.424 36.624C79.9413 38.8427 81.2 41.872 81.2 45.712C81.2 48.1013 80.3253 50.576 78.576 53.136C76.8693 55.696 74.3947 57.8933 71.152 59.728C78.448 61.392 82.096 65.5093 82.096 72.08C82.096 75.3653 81.0293 78.608 78.896 81.808C76.464 85.6053 73.008 88.2507 68.528 89.744C66.0107 90.5973 63.1093 91.024 59.824 91.024C56.5813 91.024 53.744 90.128 51.312 88.336C48.88 86.5013 47.664 84.432 47.664 82.128C47.664 80.4213 49.136 79.0133 52.08 77.904C53.2747 83.4933 56.496 86.288 61.744 86.288C65.6267 86.288 68.72 84.944 71.024 82.256C73.3707 79.568 74.544 76.7093 74.544 73.68C74.544 70.608 73.6907 68.0907 71.984 66.128C70.2773 64.1653 67.632 62.992 64.048 62.608C62 63.2053 59.6107 63.6107 56.88 63.824Z" fill="#5F2F75"/>
</g>
<defs>
<filter id="filter0_d_133_100" x="0" y="0" width="140" height="139.219" filterUnits="userSpaceOnUse" color-interpolation-filters="sRGB">
<feFlood flood-opacity="0" result="BackgroundImageFix"/>
<feColorMatrix in="SourceAlpha" type="matrix" values="0 0 0 0 0 0 0 0 0 0 0 0 0 0 0 0 0 0 127 0" result="hardAlpha"/>
<feOffset dx="5" dy="7"/>
<feGaussianBlur stdDeviation="10"/>
<feComposite in2="hardAlpha" operator="out"/>
<feColorMatrix type="matrix" values="0 0 0 0 0.211765 0 0 0 0 0.0352941 0 0 0 0 0.290196 0 0 0 0.15 0"/>
<feBlend mode="normal" in2="BackgroundImageFix" result="effect1_dropShadow_133_100"/>
<feBlend mode="normal" in="SourceGraphic" in2="effect1_dropShadow_133_100" result="shape"/>
</filter>
</defs>
</svg>
