<svg width="140" height="140" viewBox="0 0 140 140" fill="none" xmlns="http://www.w3.org/2000/svg">
<g filter="url(#filter0_d_131_3)">
<ellipse cx="65" cy="62.6094" rx="50" ry="49.6094" fill="#FCF6FF"/>
<path d="M82.864 45.712C82.864 50.576 80.7093 56.1653 76.4 62.48C74.8213 64.8267 73.4987 66.704 72.432 68.112C71.408 69.52 69.808 71.4827 67.632 74C64.8587 77.2427 61.68 80.8053 58.096 84.688C63.344 83.28 67.888 82.576 71.728 82.576C75.568 82.576 78.2347 82.96 79.728 83.728C81.264 84.4533 82.032 86.096 82.032 88.656C82.032 88.8693 82.0107 89.232 81.968 89.744C81.968 90.2133 81.968 90.576 81.968 90.832C79.9627 90.064 77.8293 89.5307 75.568 89.232C73.3493 88.9333 69.8507 88.784 65.072 88.784C60.336 88.784 56.496 89.1467 53.552 89.872C52.784 90.64 52.016 91.024 51.248 91.024C49.6693 91.024 48.496 90.2133 47.728 88.592C48.112 88.1653 49.3707 86.7573 51.504 84.368C53.68 81.9787 55.6 79.824 57.264 77.904C58.9707 75.9413 61.0187 73.4453 63.408 70.416C65.7973 67.344 67.7813 64.5493 69.36 62.032C70.9813 59.5147 72.368 56.8693 73.52 54.096C74.7147 51.28 75.312 48.7413 75.312 46.48C75.312 44.176 74.4587 42.1493 72.752 40.4C71.088 38.608 68.8053 37.712 65.904 37.712C60.4 37.712 57.1787 40.9973 56.24 47.568C54.5333 46.8853 53.3387 46.2453 52.656 45.648C52.016 45.008 51.696 44.1547 51.696 43.088C51.696 40.4427 52.9333 38.1387 55.408 36.176C57.9253 34.2133 61.7867 33.232 66.992 33.232C72.24 33.232 76.1867 34.3627 78.832 36.624C81.52 38.8427 82.864 41.872 82.864 45.712Z" fill="#5F2F75"/>
</g>
<defs>
<filter id="filter0_d_131_3" x="0" y="0" width="140" height="139.219" filterUnits="userSpaceOnUse" color-interpolation-filters="sRGB">
<feFlood flood-opacity="0" result="BackgroundImageFix"/>
<feColorMatrix in="SourceAlpha" type="matrix" values="0 0 0 0 0 0 0 0 0 0 0 0 0 0 0 0 0 0 127 0" result="hardAlpha"/>
<feOffset dx="5" dy="7"/>
<feGaussianBlur stdDeviation="10"/>
<feComposite in2="hardAlpha" operator="out"/>
<feColorMatrix type="matrix" values="0 0 0 0 0.211765 0 0 0 0 0.0352941 0 0 0 0 0.290196 0 0 0 0.15 0"/>
<feBlend mode="normal" in2="BackgroundImageFix" result="effect1_dropShadow_131_3"/>
<feBlend mode="normal" in="SourceGraphic" in2="effect1_dropShadow_131_3" result="shape"/>
</filter>
</defs>
</svg>
