<svg width="20" height="21" viewBox="0 0 20 21" fill="none" xmlns="http://www.w3.org/2000/svg">
<path d="M9.0638 13.8256L7.21098 15.6757C6.82038 16.0657 6.19944 16.0657 5.79883 15.6857C5.68866 15.5757 5.57849 15.4757 5.46832 15.3657C4.43675 14.3256 3.50534 13.2356 2.67407 12.0955C1.85282 10.9555 1.19181 9.8154 0.711082 8.68535C0.240366 7.5453 0 6.45525 0 5.4152C0 4.73517 0.120183 4.08514 0.360549 3.48512C0.600914 2.87509 0.981494 2.31506 1.5123 1.81504C2.15328 1.18501 2.85434 0.875 3.59547 0.875C3.8759 0.875 4.15633 0.935003 4.40671 1.05501C4.6671 1.17501 4.89745 1.35502 5.07773 1.61503L7.40127 4.88518C7.58154 5.13519 7.71174 5.3652 7.80187 5.58521C7.89201 5.79522 7.94209 6.00523 7.94209 6.19524C7.94209 6.43525 7.87198 6.67526 7.73177 6.90527C7.60157 7.13528 7.41128 7.37529 7.17091 7.6153L6.40976 8.40534C6.29959 8.51534 6.24951 8.64535 6.24951 8.80536C6.24951 8.88536 6.25953 8.95536 6.27956 9.03537C6.3096 9.11537 6.33965 9.17537 6.35968 9.23538C6.53995 9.56539 6.85043 9.99541 7.2911 10.5154C7.74178 11.0355 8.22251 11.5655 8.74331 12.0955C8.84346 12.1955 8.95363 12.2955 9.05378 12.3955C9.45439 12.7855 9.46441 13.4256 9.0638 13.8256Z" fill="#36094A"/>
<path d="M20.0002 17.2048C20.0002 17.4848 19.9501 17.7749 19.8499 18.0549C19.8199 18.1349 19.7899 18.2149 19.7498 18.2949C19.5795 18.6549 19.3592 18.9949 19.0688 19.3149C18.578 19.855 18.0372 20.245 17.4263 20.495C17.4162 20.495 17.4062 20.505 17.3962 20.505C16.8053 20.745 16.1643 20.875 15.4733 20.875C14.4517 20.875 13.3601 20.635 12.2083 20.145C11.0566 19.6549 9.90481 18.9949 8.76307 18.1649C8.37248 17.8749 7.98189 17.5849 7.61133 17.2748L10.8863 14.0047C11.1667 14.2147 11.4171 14.3747 11.6274 14.4847C11.6775 14.5047 11.7376 14.5347 11.8077 14.5647C11.8878 14.5947 11.9679 14.6047 12.0581 14.6047C12.2283 14.6047 12.3585 14.5447 12.4687 14.4347L13.2299 13.6847C13.4803 13.4347 13.7206 13.2447 13.951 13.1247C14.1813 12.9846 14.4117 12.9146 14.6621 12.9146C14.8523 12.9146 15.0526 12.9546 15.273 13.0446C15.4933 13.1347 15.7237 13.2647 15.974 13.4347L19.2891 15.7848C19.5495 15.9648 19.7298 16.1748 19.8399 16.4248C19.9401 16.6748 20.0002 16.9248 20.0002 17.2048Z" fill="#36094A"/>
</svg>
