<svg width="120" height="120" viewBox="0 0 120 120" fill="none" xmlns="http://www.w3.org/2000/svg">
<path d="M56.1563 0.347595C55.9219 0.542969 53.9531 6.29253 51.5625 13.7726C49.2656 20.9455 47.3203 26.8905 47.25 26.9742C47.1797 27.058 44.4609 24.3227 41.2031 20.8618C28.9688 7.96716 29.3672 8.35791 28.5938 8.35791C27.6094 8.35791 26.9531 9.22314 26.9531 10.507C26.9531 11.0931 27.4453 16.3403 28.0313 22.1736C28.9922 31.6074 29.1563 32.8633 29.6016 33.4215C30.2813 34.2868 31.5469 34.1751 32.1563 33.1704C32.625 32.4447 32.6016 32.3889 31.7813 24.2669C31.3125 19.7454 30.9844 16.0054 31.0313 15.9496C31.1016 15.8938 33.4453 18.2661 36.2578 21.2526C46.9922 32.5842 47.3203 32.9192 47.9063 32.9192C49.1719 32.9192 49.5 32.0818 53.3438 19.9966C55.3828 13.6051 57.1172 8.35791 57.1875 8.35791C57.2813 8.35791 58.9922 13.6051 61.0313 19.9966C64.8516 32.0818 65.2266 32.9192 66.4453 32.9192C66.75 32.9192 67.4063 32.5005 67.8984 31.9981C68.3906 31.5236 72.0469 27.672 76.0078 23.4854C79.9922 19.2988 83.2969 15.9217 83.3438 15.9775C83.3906 16.0333 82.8516 21.7829 82.1484 28.7605C80.8828 41.2086 80.8594 41.4319 81.2813 42.1296C81.5859 42.5762 82.0078 42.8553 82.5234 42.9111C82.9688 42.9669 87.7734 41.6831 93.375 40.0363C98.9063 38.4175 103.477 37.1336 103.5 37.1895C103.547 37.2453 101.508 40.8457 98.9766 45.2277C91.5938 58.0107 91.4063 58.3177 91.4063 59.1829C91.4063 59.6574 91.6172 60.1598 91.9922 60.4947C92.3906 60.8576 96 62.0577 102.891 64.0673C108.563 65.714 113.133 67.1654 113.039 67.277C112.922 67.3886 108.633 70.096 103.5 73.3336C93.4688 79.6134 93.1875 79.8367 93.75 81.4276C93.8906 81.8463 97.5703 85.9491 101.93 90.5544L109.852 98.9275L99.0234 99.0671C88.7813 99.2066 88.1484 99.2345 87.6797 99.7369C87.375 100.072 87.1875 100.602 87.1875 101.188C87.1875 102.277 89.5547 109.785 90.1406 110.538C90.75 111.348 91.9688 111.236 92.5547 110.343C93.2109 109.366 93.1875 109.031 92.2266 106.045C91.7813 104.649 91.4063 103.421 91.4063 103.365C91.4063 103.309 96.8438 103.226 103.5 103.198L115.617 103.114L116.086 102.361C116.414 101.858 116.508 101.412 116.391 100.881C116.203 100.016 115.781 99.5415 106.102 89.3542C102.023 85.0281 98.6719 81.3997 98.6484 81.2881C98.6484 81.2043 103.313 78.19 109.031 74.5896C114.75 71.017 119.555 67.8631 119.719 67.6119C119.859 67.3607 120 66.8025 120 66.4118C120 64.8488 119.602 64.6534 107.93 61.2483C101.859 59.49 96.7266 57.927 96.4922 57.8153C96.1406 57.6479 97.1016 55.8616 102.773 46.0371C108.727 35.7381 109.477 34.3705 109.406 33.5053C109.359 32.8633 109.125 32.3889 108.703 31.9981L108.07 31.4399L96.5156 34.8171C90.1641 36.6592 84.9141 38.1384 84.8672 38.0547C84.8203 37.9989 85.3594 31.9423 86.1094 24.6297C86.8359 17.2893 87.4219 10.8699 87.4219 10.3675C87.4219 9.22314 86.6953 8.35791 85.7813 8.35791C85.1953 8.35791 83.7422 9.75344 76.9453 16.8985C72.4453 21.6154 68.4375 25.8578 68.0391 26.3044C67.6172 26.7788 67.2188 27.0859 67.125 27.0021C67.0547 26.9184 65.4141 21.8945 63.4922 15.8379C58.8281 1.21282 58.5938 0.570885 58.1016 0.263863C57.5156 -0.126884 56.6484 -0.0710602 56.1563 0.347595Z" fill="#36094A"/>
<path d="M5.53166 32.1098C4.35979 33.1983 4.59416 33.924 8.20354 40.2038C11.8129 46.4279 12.3051 46.9861 13.5707 46.1767C15.0239 45.2836 14.8832 44.2788 12.6567 40.455C11.6254 38.6967 10.8285 37.2453 10.8754 37.1895C10.8989 37.1337 13.3832 37.8035 16.3832 38.6688C20.9067 39.9806 21.9145 40.2038 22.4067 39.9526C23.5785 39.3107 23.7426 37.2453 22.6645 36.4359C22.2426 36.101 7.0551 31.5237 6.37541 31.5237C6.25823 31.5237 5.88323 31.7749 5.53166 32.1098Z" fill="#36094A"/>
<path d="M34.6641 38.5013C31.4531 39.2828 29.1562 40.5667 22.0312 45.5348C18.3516 48.0746 14.6719 50.5587 13.8516 51.0611C11.4375 52.4845 8.53125 53.2381 4.45312 53.4613C1.28906 53.6288 0.84375 53.7125 0.445312 54.2149C-0.515625 55.4709 0.1875 57.2851 1.78125 57.6479C3.32812 57.9829 9.30469 57.2851 11.5781 56.5036C14.5312 55.4709 16.125 54.5219 23.6484 49.3027C34.2188 41.9343 33.6094 42.1297 46.4531 42.1297C57.3047 42.1297 57.1641 42.1018 59.4375 44.7812C61.125 46.7628 61.6875 48.3816 61.7344 51.4518L61.7578 53.4334L52.7812 53.573C44.2266 53.7125 43.7812 53.7405 43.4531 54.2428C42.8438 55.2476 43.125 56.8664 43.9922 57.3688C44.2266 57.5084 51.8203 57.6758 60.8672 57.7596L77.2969 57.8991L78.3281 58.7364C79.6875 59.8808 80.3906 61.4158 80.3906 63.2579C80.3906 64.0394 80.2734 65.0442 80.1328 65.4908C79.875 66.3281 78.6797 67.9469 77.9297 68.4493C77.625 68.6726 75.5391 68.84 72.0469 68.9238C67.125 69.0633 66.5625 69.1191 66.1172 69.5936C65.4844 70.2914 65.4609 71.7986 66.0938 72.5521C66.5156 73.0545 66.8906 73.1103 69.2109 73.1103C73.3828 73.1383 74.6953 73.6686 75.9609 75.8456C76.7578 77.2411 76.875 79.8647 76.1953 81.4277C75.7266 82.5162 74.7188 83.6326 73.7109 84.1629C73.4531 84.3025 70.8984 84.4699 68.0625 84.5537C63.375 84.6653 62.8125 84.749 62.3672 85.2235C61.7812 85.8375 61.7109 87.261 62.2031 88.0704C62.5078 88.5449 62.9297 88.6286 66.0234 88.7402C69.2812 88.9077 69.5859 88.9635 70.6172 89.6613C72.1406 90.7219 72.8906 92.3407 72.8906 94.4898C72.8906 96.7785 72.0234 98.4252 70.2891 99.4579C69.0703 100.184 68.9766 100.184 64.1953 100.184C59.6484 100.184 59.3203 100.211 58.7344 100.77C58.0312 101.412 57.9141 102.779 58.4531 103.7C58.7578 104.175 59.1797 104.258 62.2734 104.37C65.4141 104.51 65.8359 104.593 66.7969 105.207C70.125 107.44 70.0078 112.911 66.5625 115.06L65.2734 115.841L52.6172 115.73C40.7812 115.646 39.8203 115.59 37.8516 115.032C35.2266 114.334 33.0938 113.413 29.1797 111.348C25.3594 109.338 22.3828 108.194 19.2188 107.524C17.1562 107.105 15.4922 107.022 8.83594 107.022H0.890625L0.445312 107.691C-0.117188 108.529 -0.117188 109.422 0.46875 110.315L0.9375 111.013L9.07031 111.152C17.9062 111.292 19.2422 111.487 23.1094 112.994C24.2578 113.441 25.9922 114.25 26.9531 114.781L28.7109 115.758L14.9297 115.786L1.14844 115.813L0.585938 116.511C0.257812 116.874 0 117.516 0 117.907C0 118.297 0.257812 118.939 0.585938 119.302L1.14844 120H50.4609H99.7734L100.266 119.358C100.992 118.437 100.945 117.125 100.172 116.4C99.5625 115.813 99.3516 115.813 85.4297 115.813H71.3203L71.8828 114.474C73.1484 111.431 72.9844 107.412 71.4844 104.928C71.2266 104.482 71.0156 104.091 71.0156 104.007C71.0156 103.924 71.5781 103.477 72.2578 103.03C73.875 101.942 75.3281 99.9882 75.9375 98.0623C76.8047 95.2992 76.5 91.3917 75.2344 89.2984C74.9766 88.8798 74.7656 88.4611 74.7656 88.3774C74.7656 88.2937 75.3281 87.8471 76.0078 87.4005C77.6484 86.312 79.0781 84.3304 79.7109 82.3487C80.1094 81.0928 80.1797 80.3392 80.1094 78.4133C80.0391 76.3759 79.8984 75.7898 79.2656 74.3942C78.8438 73.4732 78.5391 72.7196 78.5859 72.6917C78.6094 72.6359 79.0547 72.3568 79.5938 72.0498C80.8594 71.2683 82.4062 69.3983 83.1562 67.6678C84.0469 65.6303 84.1641 62.1694 83.4141 59.8529C82.7812 57.8433 80.8828 55.443 79.1016 54.4103C77.9531 53.7405 77.7656 53.7125 71.6719 53.6288L65.3906 53.5451V52.3728C65.3672 45.5906 62.3438 40.2876 57.4922 38.5013C56.0625 37.971 55.3359 37.9431 46.3125 37.971C37.9453 37.971 36.4219 38.0548 34.6641 38.5013Z" fill="#36094A"/>
</svg>
